<mxfile host="app.diagrams.net" modified="2022-08-10T05:57:48.949Z" agent="5.0 (Macintosh; Intel Mac OS X 10_15_7) AppleWebKit/537.36 (KHTML, like Gecko) Chrome/104.0.0.0 Safari/537.36" etag="krRsnd4d9Ezc1pglW848" version="20.2.3" type="github">
  <diagram id="fN33L1gSerF0L8n7w4XK" name="第 1 页">
    <mxGraphModel dx="1886" dy="849" grid="0" gridSize="10" guides="1" tooltips="1" connect="1" arrows="1" fold="1" page="0" pageScale="1" pageWidth="827" pageHeight="1169" math="0" shadow="0">
      <root>
        <mxCell id="0" />
        <mxCell id="1" parent="0" />
        <mxCell id="1fnKo0RKmU6SC69-NGVL-4" style="edgeStyle=orthogonalEdgeStyle;rounded=0;orthogonalLoop=1;jettySize=auto;html=1;" edge="1" parent="1" source="1fnKo0RKmU6SC69-NGVL-1">
          <mxGeometry relative="1" as="geometry">
            <mxPoint x="380" y="210" as="targetPoint" />
          </mxGeometry>
        </mxCell>
        <mxCell id="1fnKo0RKmU6SC69-NGVL-1" value="初始化盲盒游戏" style="rounded=1;whiteSpace=wrap;html=1;" vertex="1" parent="1">
          <mxGeometry x="60" y="180" width="120" height="60" as="geometry" />
        </mxCell>
        <mxCell id="1fnKo0RKmU6SC69-NGVL-7" value="" style="edgeStyle=orthogonalEdgeStyle;rounded=0;orthogonalLoop=1;jettySize=auto;html=1;" edge="1" parent="1" source="1fnKo0RKmU6SC69-NGVL-3" target="1fnKo0RKmU6SC69-NGVL-6">
          <mxGeometry relative="1" as="geometry" />
        </mxCell>
        <mxCell id="1fnKo0RKmU6SC69-NGVL-3" value="库存校验：&lt;br&gt;卡券库库&amp;gt;0&lt;br&gt;奖项卡券+1000&amp;lt; 卡券库库" style="rounded=0;whiteSpace=wrap;html=1;" vertex="1" parent="1">
          <mxGeometry x="390" y="180" width="150" height="60" as="geometry" />
        </mxCell>
        <mxCell id="1fnKo0RKmU6SC69-NGVL-5" value="&lt;span style=&quot;&quot;&gt;责任链2：&lt;br&gt;校验游戏以及奖品库存信息&lt;/span&gt;" style="text;html=1;align=center;verticalAlign=middle;resizable=0;points=[];autosize=1;strokeColor=none;fillColor=none;" vertex="1" parent="1">
          <mxGeometry x="205" y="165" width="170" height="40" as="geometry" />
        </mxCell>
        <mxCell id="1fnKo0RKmU6SC69-NGVL-10" value="" style="edgeStyle=orthogonalEdgeStyle;rounded=0;orthogonalLoop=1;jettySize=auto;html=1;" edge="1" parent="1" source="1fnKo0RKmU6SC69-NGVL-6" target="1fnKo0RKmU6SC69-NGVL-9">
          <mxGeometry relative="1" as="geometry" />
        </mxCell>
        <mxCell id="1fnKo0RKmU6SC69-NGVL-17" value="&lt;span style=&quot;font-size: 12px; background-color: rgb(248, 249, 250);&quot;&gt;对卡券模板库操作（第三方）&lt;/span&gt;" style="edgeLabel;html=1;align=center;verticalAlign=middle;resizable=0;points=[];" vertex="1" connectable="0" parent="1fnKo0RKmU6SC69-NGVL-10">
          <mxGeometry x="-0.2" y="-1" relative="1" as="geometry">
            <mxPoint as="offset" />
          </mxGeometry>
        </mxCell>
        <UserObject label="当编页面辑奖项时更新游戏奖品表-库存（数量变更）" tooltip="当前的奖品数量=上次的奖品数量+本次设置的增量&#xa;当前的奖品总库存数量=上次的奖品总库存+本次设置的增量&#xa;注：增量可为负数" id="1fnKo0RKmU6SC69-NGVL-6">
          <mxCell style="whiteSpace=wrap;html=1;rounded=0;" vertex="1" parent="1">
            <mxGeometry x="690" y="180" width="120" height="60" as="geometry" />
          </mxCell>
        </UserObject>
        <mxCell id="1fnKo0RKmU6SC69-NGVL-8" value="责任链3：库存管理" style="text;html=1;align=center;verticalAlign=middle;resizable=0;points=[];autosize=1;strokeColor=none;fillColor=none;" vertex="1" parent="1">
          <mxGeometry x="550" y="180" width="130" height="30" as="geometry" />
        </mxCell>
        <mxCell id="1fnKo0RKmU6SC69-NGVL-13" value="" style="edgeStyle=orthogonalEdgeStyle;rounded=0;orthogonalLoop=1;jettySize=auto;html=1;" edge="1" parent="1" source="1fnKo0RKmU6SC69-NGVL-9" target="1fnKo0RKmU6SC69-NGVL-12">
          <mxGeometry relative="1" as="geometry" />
        </mxCell>
        <UserObject label="编辑时卡券失效退回卡券库" tooltip="编辑的卡券在卡券模板库中失效或者删除时会当前奖项卡券的库存强制回库" id="1fnKo0RKmU6SC69-NGVL-9">
          <mxCell style="whiteSpace=wrap;html=1;rounded=0;" vertex="1" parent="1">
            <mxGeometry x="690" y="350" width="120" height="60" as="geometry" />
          </mxCell>
        </UserObject>
        <mxCell id="1fnKo0RKmU6SC69-NGVL-19" value="" style="edgeStyle=orthogonalEdgeStyle;rounded=0;orthogonalLoop=1;jettySize=auto;html=1;" edge="1" parent="1" source="1fnKo0RKmU6SC69-NGVL-12" target="1fnKo0RKmU6SC69-NGVL-18">
          <mxGeometry relative="1" as="geometry" />
        </mxCell>
        <mxCell id="1fnKo0RKmU6SC69-NGVL-12" value="当奖品卡券增量&amp;gt;0 扣减卡券库存&lt;br&gt;当奖品卡券增量&amp;lt;0 回退券库存" style="whiteSpace=wrap;html=1;rounded=0;" vertex="1" parent="1">
          <mxGeometry x="446" y="350" width="120" height="60" as="geometry" />
        </mxCell>
        <mxCell id="1fnKo0RKmU6SC69-NGVL-23" value="" style="edgeStyle=orthogonalEdgeStyle;rounded=0;orthogonalLoop=1;jettySize=auto;html=1;" edge="1" parent="1" source="1fnKo0RKmU6SC69-NGVL-18" target="1fnKo0RKmU6SC69-NGVL-22">
          <mxGeometry relative="1" as="geometry" />
        </mxCell>
        <mxCell id="1fnKo0RKmU6SC69-NGVL-18" value="删除要废弃的游戏奖项（卡券）" style="whiteSpace=wrap;html=1;rounded=0;" vertex="1" parent="1">
          <mxGeometry x="60" y="350" width="120" height="60" as="geometry" />
        </mxCell>
        <mxCell id="1fnKo0RKmU6SC69-NGVL-20" value="责任链4：游戏信息新增或编辑" style="text;html=1;align=center;verticalAlign=middle;resizable=0;points=[];autosize=1;strokeColor=none;fillColor=none;" vertex="1" parent="1">
          <mxGeometry x="224" y="345" width="190" height="30" as="geometry" />
        </mxCell>
        <mxCell id="1fnKo0RKmU6SC69-NGVL-21" value="预扣增量" style="text;html=1;align=center;verticalAlign=middle;resizable=0;points=[];autosize=1;strokeColor=none;fillColor=none;" vertex="1" parent="1">
          <mxGeometry x="463" y="325" width="70" height="30" as="geometry" />
        </mxCell>
        <mxCell id="1fnKo0RKmU6SC69-NGVL-25" value="" style="edgeStyle=orthogonalEdgeStyle;rounded=0;orthogonalLoop=1;jettySize=auto;html=1;" edge="1" parent="1" source="1fnKo0RKmU6SC69-NGVL-22" target="1fnKo0RKmU6SC69-NGVL-24">
          <mxGeometry relative="1" as="geometry" />
        </mxCell>
        <mxCell id="1fnKo0RKmU6SC69-NGVL-22" value="原始的奖项不包含现有的奖项--删除" style="whiteSpace=wrap;html=1;rounded=0;" vertex="1" parent="1">
          <mxGeometry x="60" y="490" width="120" height="60" as="geometry" />
        </mxCell>
        <mxCell id="1fnKo0RKmU6SC69-NGVL-27" value="" style="edgeStyle=orthogonalEdgeStyle;rounded=0;orthogonalLoop=1;jettySize=auto;html=1;" edge="1" parent="1" source="1fnKo0RKmU6SC69-NGVL-24" target="1fnKo0RKmU6SC69-NGVL-26">
          <mxGeometry relative="1" as="geometry" />
        </mxCell>
        <mxCell id="1fnKo0RKmU6SC69-NGVL-24" value="删除对应的游戏奖品的记录" style="whiteSpace=wrap;html=1;rounded=0;" vertex="1" parent="1">
          <mxGeometry x="260" y="490" width="120" height="60" as="geometry" />
        </mxCell>
        <mxCell id="1fnKo0RKmU6SC69-NGVL-29" value="" style="edgeStyle=orthogonalEdgeStyle;rounded=0;orthogonalLoop=1;jettySize=auto;html=1;" edge="1" parent="1" source="1fnKo0RKmU6SC69-NGVL-26" target="1fnKo0RKmU6SC69-NGVL-28">
          <mxGeometry relative="1" as="geometry" />
        </mxCell>
        <mxCell id="1fnKo0RKmU6SC69-NGVL-26" value="通过要删除奖品卡券的PrizeIdList得到需要删除的卡券cardReleaseList" style="whiteSpace=wrap;html=1;rounded=0;" vertex="1" parent="1">
          <mxGeometry x="446" y="490" width="134" height="60" as="geometry" />
        </mxCell>
        <mxCell id="1fnKo0RKmU6SC69-NGVL-31" value="" style="edgeStyle=orthogonalEdgeStyle;rounded=0;orthogonalLoop=1;jettySize=auto;html=1;" edge="1" parent="1" source="1fnKo0RKmU6SC69-NGVL-28" target="1fnKo0RKmU6SC69-NGVL-30">
          <mxGeometry relative="1" as="geometry" />
        </mxCell>
        <mxCell id="1fnKo0RKmU6SC69-NGVL-28" value="遍历卡券根据当前奖品库存退到卡券库中" style="whiteSpace=wrap;html=1;rounded=0;" vertex="1" parent="1">
          <mxGeometry x="690" y="490" width="120" height="60" as="geometry" />
        </mxCell>
        <mxCell id="1fnKo0RKmU6SC69-NGVL-30" value="保存/更新游戏奖品表" style="whiteSpace=wrap;html=1;rounded=0;" vertex="1" parent="1">
          <mxGeometry x="690" y="622" width="120" height="60" as="geometry" />
        </mxCell>
      </root>
    </mxGraphModel>
  </diagram>
</mxfile>
